Coordinates
version=1
nRows=14
nColumns=40
inDegrees=yes

Units are S.I. units (second, meters, Newtons, ...)
Angles are in degrees.

endheader
time	pelvis_tilt	pelvis_list	pelvis_rotation	pelvis_tx	pelvis_ty	pelvis_tz	hip_flexion_r	hip_adduction_r	hip_rotation_r	knee_angle_r	knee_angle_r_beta	ankle_angle_r	subtalar_angle_r	mtp_angle_r	hip_flexion_l	hip_adduction_l	hip_rotation_l	knee_angle_l	knee_angle_l_beta	ankle_angle_l	subtalar_angle_l	mtp_angle_l	lumbar_extension	lumbar_bending	lumbar_rotation	arm_flex_r	arm_add_r	arm_rot_r	elbow_flex_r	pro_sup_r	wrist_flex_r	wrist_dev_r	arm_flex_l	arm_add_l	arm_rot_l	elbow_flex_l	pro_sup_l	wrist_flex_l	wrist_dev_l
     40.90000000	     -6.21348406	     -5.39370993	      0.33680922	      0.99855348	      0.92872224	      0.40273832	     31.43550974	     -5.23934613	     -5.47816937	     68.87458995	     68.87458995	     -2.18821224	    -16.87192582	      1.15454187	     17.92052185	     -5.21885434	     -6.17937814	     24.02743254	     24.02743254	     14.36596342	    -13.23027106	      3.74017777	    -11.25625699	      6.69592081	      3.16938302	     10.71875861	    -11.98195194	     -1.49449353	     47.42183105	     45.52389413	      0.00000000	      0.00000000	      8.93725950	    -12.52232024	      0.45889936	     46.43631705	     46.07150605	      0.00000000	      0.00000000
     40.91221429	     -6.23173792	     -5.56389403	      0.06883592	      0.99734679	      0.92935424	      0.40262660	     32.66861475	     -4.99338167	     -5.60175362	     67.92910887	     67.92910887	     -2.18138682	    -16.86927923	      0.19770659	     17.13161059	     -5.41312951	     -6.40112847	     23.45910415	     23.45910415	     14.39234866	    -13.20041207	      3.15792544	    -11.35617783	      6.90818981	      3.16253190	      9.45957481	    -12.21809181	     -1.37260512	     43.70920702	     45.65143976	      0.00000000	      0.00000000	     10.17771800	    -13.11323656	      0.46615651	     48.22147899	     46.13951819	      0.00000000	      0.00000000
     40.92442857	     -6.22434053	     -5.73712603	     -0.18707967	      0.99615393	      0.92996637	      0.40251350	     33.79710164	     -4.69470661	     -5.67636798	     66.84930989	     66.84930989	     -1.96674860	    -16.72612216	      0.13470511	     16.33096637	     -5.60911728	     -6.62979914	     22.92607631	     22.92607631	     14.62914166	    -13.02790786	      3.05908522	    -11.52904330	      7.14882992	      3.52623222	      7.53843772	    -12.74722027	     -1.22949287	     41.49054978	     45.71735728	      0.00000000	      0.00000000	     11.76115758	    -13.35506790	      0.21843856	     49.56488240	     46.20115172	      0.00000000	      0.00000000
     40.93664286	     -6.29980860	     -5.89421982	     -0.38363465	      0.99493127	      0.93030274	      0.40245690	     34.89154861	     -4.43749090	     -5.82667899	     65.56626287	     65.56626287	     -1.69184948	    -16.45733629	      0.14827473	     15.75496776	     -5.78727257	     -6.76182130	     22.61239930	     22.61239930	     14.86010946	    -12.93492989	      2.99829968	    -11.56379054	      7.38048858	      2.94482702	      5.89466927	    -12.91027996	     -1.18130866	     40.40437077	     45.74603529	      0.00000000	      0.00000000	     13.01513973	    -14.20733819	     -0.06375732	     50.19495712	     46.24657549	      0.00000000	      0.00000000
     40.94885714	     -6.20321134	     -6.06971366	     -0.69575927	      0.99394363	      0.93100588	      0.40256084	     35.66393046	     -4.03051774	     -5.83793712	     63.96624898	     63.96624898	     -1.59467415	    -16.24660638	      0.20948434	     14.72335811	     -6.00180224	     -7.15889746	     21.85178488	     21.85178488	     15.08963126	    -12.56251045	      2.75155039	    -11.88053767	      7.58522318	      4.10424029	      4.24677379	    -13.47366908	     -0.98700918	     36.52814044	     45.87828702	      0.00000000	      0.00000000	     14.75236698	    -13.94160687	     -0.14011171	     52.27384718	     46.30289673	      0.00000000	      0.00000000
     40.96107143	     -6.25712046	     -6.20049765	     -0.90262465	      0.99291909	      0.93129122	      0.40271271	     36.43587745	     -3.72276723	     -5.94434199	     62.07026066	     62.07026066	     -1.50804737	    -15.93288992	     -0.04677364	     14.01745804	     -6.18060639	     -7.49892540	     21.32400760	     21.32400760	     15.00821799	    -12.31682036	      1.77389358	    -11.82625526	      7.74671998	      2.98513458	      5.30991134	    -12.84510535	     -1.31513824	     29.27829008	     46.20705501	      0.00000000	      0.00000000	     14.96685929	    -15.25624812	     -0.12408936	     54.61049385	     46.37752670	      0.00000000	      0.00000000
     40.97328571	     -6.25378404	     -6.24714080	     -1.14450632	      0.99202787	      0.93160464	      0.40291815	     37.02382312	     -3.45484598	     -5.96134517	     59.89489467	     59.89489467	     -1.31171684	    -15.43933371	      0.01208532	     13.18927560	     -6.23064430	     -7.77644434	     20.72603282	     20.72603282	     15.20517078	    -12.12759710	      1.70614795	    -11.97704689	      7.83830774	      3.16042457	      3.60385346	    -13.13357433	     -1.43414918	     27.93112075	     46.25992040	      0.00000000	      0.00000000	     16.25578696	    -15.52340678	     -0.67483210	     56.06311645	     46.46385181	      0.00000000	      0.00000000
     40.98550000	     -6.25285554	     -6.32149052	     -1.36446161	      0.99129684	      0.93186682	      0.40318939	     37.41378403	     -3.16153939	     -6.03524595	     57.33349969	     57.33349969	     -1.14929617	    -14.80478558	      0.05377046	     12.33997963	     -6.31290395	     -8.06802334	     20.09401653	     20.09401653	     15.43460627	    -11.83538229	      1.57319699	    -12.06352394	      7.97002114	      3.20916077	      2.00782290	    -13.39521288	     -1.53442793	     26.68755640	     46.30928376	      0.00000000	      0.00000000	     17.38925443	    -15.78243968	     -1.09567899	     57.51072600	     46.53392579	      0.00000000	      0.00000000
     40.99771429	     -6.30196410	     -6.29914529	     -1.57249022	      0.99056256	      0.93189516	      0.40360746	     37.72224347	     -2.94470925	     -6.09873733	     54.49744523	     54.49744523	     -0.93236948	    -14.11563233	     -0.05441697	     11.57074457	     -6.30660037	     -8.41445460	     19.50358728	     19.50358728	     15.59216791	    -11.50422138	      1.37089331	    -12.13343487	      7.96864774	      3.21472540	      0.43613903	    -13.54842285	     -1.67926144	     25.53211210	     46.35994057	      0.00000000	      0.00000000	     18.44335566	    -16.25921332	     -1.58159047	     59.12818062	     46.61262447	      0.00000000	      0.00000000
     41.00992857	     -6.35994478	     -6.22505978	     -1.73849099	      0.99007234	      0.93174748	      0.40406575	     37.79754803	     -2.77172523	     -6.20849747	     51.22917080	     51.22917080	     -1.22903466	    -13.61292662	     -1.58287330	     10.74132967	     -6.23998680	     -8.80833895	     18.78050176	     18.78050176	     15.51614865	    -11.12898760	      0.47039298	    -12.14431508	      7.90411834	      2.60483124	     -0.52769605	    -13.43246354	     -2.76052530	     23.95729204	     46.53174229	      0.00000000	      0.00000000	     18.43794646	    -16.92917624	     -2.82543420	     62.46953259	     46.81553982	      0.00000000	      0.00000000
     41.02214286	     -6.54241672	     -6.16186748	     -1.89109122	      0.98953854	      0.93132877	      0.40464721	     37.87969975	     -2.56769467	     -6.37884435	     47.77097876	     47.77097876	     -0.98544286	    -12.76503853	     -1.30659169	     10.18991628	     -6.18229889	     -9.02371934	     18.33168224	     18.33168224	     15.74304856	    -10.94895831	      0.40059652	    -11.93712565	      7.87258629	      2.32420315	     -2.05855277	    -13.58219112	     -2.81898743	     23.37814058	     46.54805097	      0.00000000	      0.00000000	     19.50983816	    -17.54056893	     -3.18981646	     63.29281998	     46.86679202	      0.00000000	      0.00000000
     41.03435714	     -6.41645641	     -6.06716810	     -1.99842049	      0.98945967	      0.93131227	      0.40512799	     37.35189205	     -2.45246562	     -6.72362313	     43.98476903	     43.98476903	     -0.63828669	    -11.50752711	     -1.24582837	      9.08941697	     -6.07305121	     -9.41318395	     17.53893056	     17.53893056	     15.95234907	    -10.32653677	      0.22900985	    -12.15504885	      7.84499365	      2.58773973	     -3.88541517	    -13.86065132	     -2.97606687	     22.89628790	     46.56677783	      0.00000000	      0.00000000	     20.47481886	    -17.46888406	     -3.57224314	     65.17007986	     46.93822338	      0.00000000	      0.00000000
     41.04657143	     -6.64713255	     -5.81703450	     -2.08549007	      0.98921926	      0.93043835	      0.40585367	     37.15234115	     -2.40317541	     -7.01606103	     40.15822051	     40.15822051	     -0.43844667	    -10.56325925	     -0.86281978	      8.58911637	     -5.82585410	     -9.72536467	     17.10722924	     17.10722924	     16.19895474	    -10.04370017	      0.04539111	    -11.81645759	      7.53787426	      2.31515283	     -5.45541053	    -13.87538821	     -3.06975164	     22.54499713	     46.57445899	      0.00000000	      0.00000000	     21.44843357	    -18.05954784	     -3.96811511	     66.26188425	     46.99446121	      0.00000000	      0.00000000
     41.05878571	     -6.42367431	     -5.71553726	     -2.12771831	      0.98971609	      0.93006609	      0.40656283	     36.10930253	     -2.29751820	     -7.73778911	     36.04689823	     36.04689823	     -0.24075506	     -8.95859240	     -1.25710942	      7.31521635	     -5.76864565	    -10.43332263	     16.25914310	     16.25914310	     16.33710704	     -8.81178767	     -1.04300696	    -12.15676075	      7.43085224	      2.25393427	     -7.85949279	    -14.14967150	     -4.07286581	     24.41412350	     46.55195257	      0.00000000	      0.00000000	     21.23673634	    -18.14831659	     -5.06649153	     70.77630755	     47.17896891	      0.00000000	      0.00000000
